<svg preserveAspectRatio="xMidYMid meet" overflow="visible" style="display: block;" width="25" height="25" viewBox="0 0 25 25" fill="none" xmlns="http://www.w3.org/2000/svg">
<g id="WeChat logo" filter="url(#filter0_d_0_10)">
<rect x="2.5" y="1.5" width="20" height="20" rx="10" fill="#00E06F"/>
<rect x="2.25" y="1.25" width="20.5" height="20.5" rx="10.25" stroke="#F1F1F2" stroke-width="0.5"/>
<path id="Vector" d="M18.2031 15.9141C19.1016 15.25 19.6875 14.2734 19.6875 13.1797C19.6875 11.1875 17.7344 9.58594 15.3516 9.58594C12.9688 9.58594 11.0547 11.1875 11.0547 13.1797C11.0547 15.1719 12.9688 16.7734 15.3516 16.7734C15.8594 16.7734 16.3281 16.6953 16.7578 16.5781C16.9141 16.5391 17.0703 16.5781 17.1094 16.6172L18.0859 17.1641C18.2031 17.2422 18.3203 17.1641 18.2812 17.0078L18.0469 16.1484C18.0469 16.0312 18.125 15.9531 18.2031 15.9141ZM13.9062 12.5938C13.8195 12.6167 13.7286 12.6195 13.6407 12.6018C13.5527 12.5841 13.47 12.5464 13.3989 12.4917C13.3278 12.437 13.2702 12.3666 13.2305 12.2861C13.1909 12.2056 13.1703 12.1171 13.1703 12.0273C13.1703 11.9376 13.1909 11.8491 13.2305 11.7686C13.2702 11.6881 13.3278 11.6177 13.3989 11.563C13.47 11.5083 13.5527 11.4706 13.6407 11.4529C13.7286 11.4352 13.8195 11.438 13.9062 11.4609C14.0312 11.494 14.1417 11.5675 14.2206 11.67C14.2994 11.7724 14.3422 11.8981 14.3422 12.0273C14.3422 12.1566 14.2994 12.2823 14.2206 12.3847C14.1417 12.4872 14.0312 12.5607 13.9062 12.5938ZM16.7969 12.5938C16.7101 12.6167 16.6193 12.6195 16.5313 12.6018C16.4433 12.5841 16.3606 12.5464 16.2895 12.4917C16.2184 12.437 16.1608 12.3666 16.1212 12.2861C16.0815 12.2056 16.0609 12.1171 16.0609 12.0273C16.0609 11.9376 16.0815 11.8491 16.1212 11.7686C16.1608 11.6881 16.2184 11.6177 16.2895 11.563C16.3606 11.5083 16.4433 11.4706 16.5313 11.4529C16.6193 11.4352 16.7101 11.438 16.7969 11.4609C16.9218 11.494 17.0323 11.5675 17.1112 11.67C17.19 11.7724 17.2328 11.8981 17.2328 12.0273C17.2328 12.1566 17.19 12.2823 17.1112 12.3847C17.0323 12.4872 16.9218 12.5607 16.7969 12.5938ZM10.5078 5.60156C7.65625 5.60156 5.35156 7.55469 5.35156 9.9375C5.35156 11.2266 6.01562 12.3984 7.10938 13.1797C7.22656 13.2578 7.30469 13.375 7.26562 13.5703L6.99219 14.5078C6.95312 14.7031 7.10938 14.7812 7.22656 14.7422L8.39844 14.0781C8.51562 14 8.67188 13.9609 8.82812 14C9.84375 14.3125 10.7031 14.2344 10.8203 14.2344C9.88281 10.9531 13.125 9.07812 15.625 9.23438C15.2344 7.20312 13.0859 5.60156 10.5078 5.60156ZM8.78906 9.23438C8.68568 9.25926 8.578 9.26038 8.47413 9.23764C8.37025 9.2149 8.27289 9.1689 8.18936 9.10309C8.10584 9.03729 8.03832 8.9534 7.9919 8.85773C7.94548 8.76206 7.92136 8.65712 7.92136 8.55078C7.92136 8.44445 7.94548 8.3395 7.9919 8.24383C8.03832 8.14816 8.10584 8.06427 8.18936 7.99847C8.27289 7.93266 8.37025 7.88666 8.47413 7.86392C8.578 7.84118 8.68568 7.8423 8.78906 7.86719C8.94254 7.90414 9.07911 7.99166 9.1768 8.11566C9.27449 8.23966 9.32761 8.39292 9.32761 8.55078C9.32761 8.70864 9.27449 8.86191 9.1768 8.98591C9.07911 9.10991 8.94254 9.19743 8.78906 9.23438ZM12.2656 9.23438C12.1622 9.25926 12.0546 9.26038 11.9507 9.23764C11.8468 9.2149 11.7495 9.1689 11.6659 9.10309C11.5824 9.03729 11.5149 8.9534 11.4685 8.85773C11.422 8.76206 11.3979 8.65712 11.3979 8.55078C11.3979 8.44445 11.422 8.3395 11.4685 8.24383C11.5149 8.14816 11.5824 8.06427 11.6659 7.99847C11.7495 7.93266 11.8468 7.88666 11.9507 7.86392C12.0546 7.84118 12.1622 7.8423 12.2656 7.86719C12.4191 7.90414 12.5557 7.99166 12.6534 8.11566C12.7511 8.23966 12.8042 8.39292 12.8042 8.55078C12.8042 8.70864 12.7511 8.86191 12.6534 8.98591C12.5557 9.10991 12.4191 9.19743 12.2656 9.23438Z" fill="white"/>
</g>
<defs>
<filter id="filter0_d_0_10" x="0" y="0" width="25" height="25" filterUnits="userSpaceOnUse" color-interpolation-filters="sRGB">
<feFlood flood-opacity="0" result="BackgroundImageFix"/>
<feColorMatrix in="SourceAlpha" type="matrix" values="0 0 0 0 0 0 0 0 0 0 0 0 0 0 0 0 0 0 127 0" result="hardAlpha"/>
<feOffset dy="1"/>
<feGaussianBlur stdDeviation="1"/>
<feComposite in2="hardAlpha" operator="out"/>
<feColorMatrix type="matrix" values="0 0 0 0 0.0627451 0 0 0 0 0.0941176 0 0 0 0 0.156863 0 0 0 0.05 0"/>
<feBlend mode="normal" in2="BackgroundImageFix" result="effect1_dropShadow_0_10"/>
<feBlend mode="normal" in="SourceGraphic" in2="effect1_dropShadow_0_10" result="shape"/>
</filter>
</defs>
</svg>
